# xmcd
# Track frame offsets:
# 150
# 19119
# 36092
# 61458
# 82007
# 98257
# 112364
# 129071
# 145013
# 162415
# 176492
# 195883
# 215093
# 247148
#
# Disc length: 3624 seconds
# Revision: 0
# Processed by: cddbd v1.4PL0 Copyright (c) Steve Scherf et al.
# Submitted via: VisiTrax 2.9.6.190 - For more info visit www.synapsa.com
#
DISCID=bd0e260e
DTITLE=Shania Twain - Rockin The Country
DYEAR=1900
DGENRE=
TTITLE0=Man!! Feel like a woman
TTITLE1=Honey, I`m Home
TTITLE2=You Win My Love
TTITLE3=Whose Bed Have Your Boots Been Under ?
TTITLE4=You`re Still The One
TTITLE5=Come On Over
TTITLE6=Love Gets Me Everytime
TTITLE7=I`m Holding On To Love (To Save My Life)
TTITLE8=That Dont Impress Me Much
TTITLE9=No One Needs To Know
TTITLE10=Any Man Of Mine
TTITLE11=Don`t Be Stupid (You Know I Love You)
TTITLE12=(If You`re Not In It For Love) I`m Outta Here !
TTITLE13=Rock This Country
EXTD=
EXTT0=
EXTT1=
EXTT2=
EXTT3=
EXTT4=
EXTT5=
EXTT6=
EXTT7=
EXTT8=
EXTT9=
EXTT10=
EXTT11=
EXTT12=
EXTT13=
PLAYORDER=
